<?xml version="1.0" standalone="no"?>
<!DOCTYPE svg PUBLIC "-//W3C//DTD SVG 20010904//EN"
 "http://www.w3.org/TR/2001/REC-SVG-20010904/DTD/svg10.dtd">
<svg version="1.0" xmlns="http://www.w3.org/2000/svg"
 width="500.000000pt" height="175.000000pt" viewBox="0 0 500.000000 175.000000"
 preserveAspectRatio="xMidYMid meet">

<g transform="translate(0.000000,175.000000) scale(0.100000,-0.100000)"
fill="#000000" stroke="none">
<path d="M637 1196 c-26 -7 -57 -21 -68 -32 -29 -26 -59 -92 -59 -131 l0 -33
-60 0 -60 0 0 -40 0 -40 60 0 60 0 0 -185 0 -185 55 0 55 0 0 185 0 185 80 0
80 0 0 40 0 40 -81 0 -82 0 6 36 c3 20 11 42 18 50 17 21 82 35 127 28 l40 -6
4 42 c2 23 1 43 -2 45 -20 11 -132 12 -173 1z"/>
<path d="M1060 1145 l0 -45 65 0 65 0 0 -230 0 -230 -65 0 -65 0 0 -45 0 -45
185 0 185 0 0 45 0 45 -60 0 -60 0 0 275 0 275 -125 0 -125 0 0 -45z"/>
<path d="M3600 1145 l0 -44 68 -3 67 -3 0 -225 0 -225 -67 -3 -68 -3 0 -44 0
-45 190 0 190 0 0 45 0 45 -65 0 -65 0 0 275 0 275 -125 0 -125 0 0 -45z"/>
<path d="M1865 1172 c-26 -5 -45 -30 -45 -57 0 -52 84 -76 114 -33 21 29 20
51 -1 70 -23 19 -43 25 -68 20z"/>
<path d="M4290 1009 c-101 -45 -160 -138 -160 -249 0 -241 290 -361 460 -190
171 170 51 460 -190 460 -44 0 -80 -7 -110 -21z m232 -64 c55 -39 98 -119 98
-186 0 -69 -43 -146 -104 -183 -101 -63 -233 -35 -300 61 -35 50 -46 137 -26
198 16 49 66 104 115 127 62 29 161 21 217 -17z"/>
<path d="M4370 820 l0 -80 53 -34 c86 -54 94 -58 101 -40 4 11 -12 26 -54 52
l-60 37 0 73 c0 65 -2 72 -20 72 -18 0 -20 -7 -20 -80z"/>
<path d="M2484 999 c-17 -5 -37 -16 -44 -24 -17 -21 -30 -19 -30 5 0 17 -7 20
-50 20 l-50 0 0 -310 0 -310 55 0 55 0 0 107 c0 103 1 106 19 89 30 -27 85
-38 130 -26 90 24 136 101 135 225 0 38 -6 87 -13 108 -18 54 -66 105 -109
117 -43 12 -56 11 -98 -1z m50 -89 c37 -14 57 -61 57 -135 0 -102 -43 -157
-111 -140 -53 14 -60 30 -60 140 0 85 3 104 18 117 31 28 58 33 96 18z"/>
<path d="M3105 1005 c-5 -2 -22 -6 -38 -9 -47 -11 -105 -72 -122 -129 -39
-131 4 -255 105 -308 14 -7 52 -13 85 -13 93 -1 173 52 191 127 l6 27 -56 0
c-40 0 -56 -4 -56 -13 0 -22 -35 -47 -73 -54 -72 -11 -120 78 -102 188 8 49
51 99 85 99 35 0 79 -29 86 -55 6 -23 11 -25 61 -25 52 0 55 1 49 23 -3 12 -6
27 -6 34 0 7 -14 28 -31 48 -39 44 -136 76 -184 60z"/>
<path d="M1700 955 l0 -45 65 0 65 0 0 -135 0 -135 -65 0 -65 0 0 -45 0 -45
180 0 180 0 0 45 0 45 -60 0 -60 0 0 180 0 180 -120 0 -120 0 0 -45z"/>
</g>
</svg>
